<?xml version="1.0" encoding="UTF-8"?><svg id="Layer_2" xmlns="http://www.w3.org/2000/svg" viewBox="0 0 465.32 125.68"><defs><style>.cls-1{font-family:Futura-Bold, Futura;font-size:20px;font-weight:700;}.cls-1,.cls-2{fill:#155742;}.cls-3{letter-spacing:.1em;}.cls-4{letter-spacing:.1em;}.cls-5{letter-spacing:.11em;}</style></defs><g id="Layer_1-2"><text class="cls-1" transform="translate(236.47 118.81)"><tspan class="cls-4" x="0" y="0">DESIGN </tspan><tspan class="cls-5" x="103.74" y="0">C</tspan><tspan class="cls-3" x="119.3" y="0">O</tspan></text><path class="cls-2" d="M247.64,84.63c-.43-.33-.49-.38-.48-.9.01-1.01,1.53-5.63,1.13-6.07l-7.4,4.58c-10.64,5.46-25.74,6.11-32.48-5.46l-4.12,5.03c-5.26,4.9-14.9,6.32-19.11-.54-6.54-10.67,2.32-23.84,1.24-34.78-.66-6.68-6.73-4.08-10.06-.87-8.42,8.11-12.19,24.78-14.69,35.85-.23,1.01.26,2.74-.83,3.1l-9.31.06-.21-2.18c-6.52,5.58-16.43,4.49-19.18-4.36-5.68,9.03-20.4,11.91-23.76-.44-5.7,6.4-14.32,11.87-22.43,5.65-10.75-8.24-11.06-32.48-17.95-36.51-1-.59-3.41-1.64-3.99-.19-3.15,13.06-5.47,37.52-22.59,39.28-11.1,1.14-18.85-7.05-21.48-17.09l7.36-4.64c1.36,4.41,3.83,9.67,8.42,11.41,10.86,4.1,14-11.45,15.78-18.81,3.54-14.66,5.7-29.69,8.92-44.42-10.81-2.44-22.64-3.88-33.76-3.06-12.48.92-25.25,9.38-9.86,19.02.23.74-1.65,7.12-2.1,8.24-.2.5.29.7-.66.6-3.8-.4-9.11-4.86-11.24-7.95-3.8-5.49-3.66-12.68-.17-18.23C12.16-4.21,43.29-.19,58.27,2.95c1.88.39,12.23,2.82,13.08,3.49.29.23.46.44.41.83l-5.65,29.45c4.56.45,7.89-2.5,10.68-5.66,6.77-7.67,17.05-30.6,29.21-29.21,2.27.26,4.69,5.72,5.43,7.86-11.37,1.29-16.65,13.3-22.74,21.48-3.13,4.2-6.6,9.4-11.69,11.19v.64c7.81,5.64,7.89,27.65,15.27,32.22,6.71,4.16,13.6-7.3,15.26-12.59,5.18-16.53,5.87-37.23,10.8-54.11.16-.55.19-1.1.73-1.45h9.37l-11.35,59.88c.14,2.79-.87,8.11,2.62,9.2,5.58,1.73,10.46-9.69,12.02-13.73l5.43-27.9h9.59c.07,1.65-.3,3.26-.57,4.87-1.33,7.95-6.91,27.91-4.8,34.7,1.26,4.05,5.68,1.73,7.74-.4.8-.82,1.88-2.56,2.5-3.6,6.24-10.34,6.14-24.04,9.08-35.57h9.59l-1.74,9.58,6.76-7.83c4.96-3.93,12.66-5.25,17.65-.67,9.29,8.52-1.43,27.07-.03,37.93.47,3.62,4.22,3.13,6.57,1.29,1.88-1.46,5.94-7.86,6.43-10.12,2.34-10.67,2.27-18.13,11.2-26.27,12.56-11.46,32.09-4.69,27.46,13.51-3.09,12.18-18.12,14.94-28.54,10.9-1.86,23.81,28.92,11.64,35.52-.87l11.11-54.89h9.59l-6.1,33.11c6.59-8.38,23.92-11.54,27.59.95,3.64,12.37-8.97,21.16-19.75,22.58,1.26,6.58,5.34,14.89,13.38,11.84,9.89-3.76,16.16-21.72,18.46-31.19-8.59-4.26-5.23-20.12,4.9-18.01,3.78.79,5.77,6.18,4.68,9.48,1.92-.15,3.92-.25,5.83-.49,3.38-.42,8.86-2.37,11.77-.76s2.32,3.89,1.89,6.56c-1.39,8.59-5.33,18.17-5.97,26.71-.84,11.15,5.16,10.76,10.38,2.97,4-5.98,3.8-12.81,6.68-19.46,4.76-11.04,19.33-26.64,30.89-14.43.25.26.79,2.11,1.29.82l1.09-3.23h8.5c-1.06,10.34-5.32,21.32-6.09,31.59-.3,3.9-.96,12.84,5.53,9.44,3.5-1.83,8.98-12.55,8.88-16.42-.06-2.47-1.75-4.78-2.01-7.21l4.16-2.03c1.78-8.65,3.36-17.42,5.78-25.93,2.3-8.06,6.34-21.5,16.65-21.72,7.89-.17,11.44,7.18,11.11,14.18-.67,14.13-12.05,28.85-22.14,37.9,3.57,4.97,10.8,9.89,17.02,7.08,6.65-3,5.72-12.22,7.74-18.18h-7.41l1.8-8.66,7.4-.31,3-14.12h10.02l-3.05,14.37h13.08l-1.8,8.66-13.25.47c-.99,7.19-3.88,14.9-4.5,22.07-.33,3.83-.84,8.78,3.62,10.2,7.66,2.45,13.28-7.3,16.6-12.66l5.38,4.67c.48,1.76-3.84,7.94-5.16,9.5-11.06,13.11-31.27,11.87-30.52-8.07-4.11,1.9-8.81,1.6-13.07.44,3.3,12.36,3.83,39.06-7.88,47.23-4.98,3.48-12.39,2.75-16.32-1.93-6.58-7.82-2.06-23.46-.65-32.67-1.19.06-1.71,1.24-2.74,1.83-5.77,3.29-13.19,1.49-15.64-5.02-.59-1.56-.43-3.71-1.66-4.65-4.99,11.83-21.26,16.47-27.69,3.05l-5.04,5.4c-6.92,5.13-16.46,3.5-19.11-5.21-3.19-10.48,2.72-23.3,4.33-33.73-3.18,1.51-6.79.21-9.92,1.41-2.21,7.85-4.79,15.69-8.74,22.84-5.54,10.03-15.61,21.13-28.26,16.34-8-3.03-14.03-17.06-12.76-25.1.62-3.9,5.08-3.29,7.75-4.01,4.83-1.3,13.68-4.53,11.64-11.06-1.22-3.91-7.78-1.88-10.39-.32-13.03,7.75-13.09,27.34-16.43,40.42h-9.37ZM409.57,43.68c5.89-5.89,15.32-21.74,13.32-30.08-.38-1.6-1.15-2.56-2.88-1.97-3.44,1.17-7.05,16.19-7.96,19.94-.97,3.99-1.84,8.06-2.47,12.12ZM367.63,42.03c-9.87.98-17.12,20.79-15.04,29.19,1.42,5.75,5.82,6.37,10.31,3.14,5.02-3.61,12.07-20.05,11.32-26.07-.44-3.55-2.74-6.64-6.59-6.26ZM218.24,54.99c7.13,2.09,18.62.89,17.42-8.92-.44-3.59-3.63-4.08-6.73-3.65-4.86.67-10.13,7.94-10.7,12.57ZM405.21,63.72c-1.36,7.23-3.02,14.44-4.23,21.7-.87,5.21-2.81,13.59-2.31,18.59.65,6.49,5.23,6.71,7.91.95,4.25-9.12,3.55-28.14.48-37.65-.39-1.2-.68-2.99-1.85-3.59Z"/><path class="cls-2" d="M143.58,15.03c9.54-1.54,9.59,14.17-.95,12.5-6.56-1.04-6.19-11.35.95-12.5Z"/></g></svg>